# xmcd
#
# Track frame offsets: 
#        150
#        15336
#        32745
#        52380
#        67090
#        78397
#        98304
#        115347
#        128200
#        142530
#        160720
#        178271
#        194236
#        209597
#        223754
#        242664
#
# Disc length: 3393 seconds
#
# Revision: 18
# Processed by: cddbd v1.5.2PL0 Copyright (c) Steve Scherf et al.
# Submitted via: ExactAudioCopyFreeDBPlugin 1.0
#
DISCID=e70d3f10
DTITLE=BossHoss - Internashville Urban Hymns
DYEAR=2005
DGENRE=Country Rock
TTITLE0=Yee Haw
TTITLE1=Hey Ya!
TTITLE2=Toxic
TTITLE3=Loser
TTITLE4=Sabotage
TTITLE5=Hot In Here
TTITLE6=Seven Nation Army
TTITLE7=Drowned In Lake Daniels
TTITLE8=A Little Less Conversation
TTITLE9=Hey Joe
TTITLE10=Eyes Without A Face
TTITLE11=Unbelievable
TTITLE12=All The Things She Said
TTITLE13=Remedy
TTITLE14=Word Up
TTITLE15=Like Ice In The Sunshine
EXTD=YEAR: 2005
EXTT0=
EXTT1=
EXTT2=
EXTT3=
EXTT4=
EXTT5=
EXTT6=
EXTT7=
EXTT8=
EXTT9=
EXTT10=
EXTT11=
EXTT12=
EXTT13=
EXTT14=
EXTT15=
PLAYORDER=
